<svg version="1.1" id="Layer_1" xmlns="http://www.w3.org/2000/svg" xmlns:xlink="http://www.w3.org/1999/xlink" x="0px" y="0px"
	 width="100%" viewBox="0 0 514 562" enable-background="new 0 0 514 562" xml:space="preserve">
<path fill="#FDFDFD" opacity="1.000000" stroke="none" 
	d="
M515.000000,199.000000 
	C515.000000,320.638519 515.000000,441.777069 515.000000,562.957764 
	C343.734619,562.957764 172.469223,562.957764 1.101912,562.957764 
	C1.101912,375.778168 1.101912,188.556274 1.101912,1.167183 
	C172.333206,1.167183 343.666595,1.167183 515.000000,1.167183 
	C515.000000,66.864082 515.000000,132.682037 515.000000,199.000000 
M303.017822,507.453156 
	C291.027802,482.384430 287.721832,456.235748 293.918396,429.125916 
	C300.607330,399.862061 316.330414,376.415558 340.441772,358.517120 
	C342.083160,357.298706 342.905518,354.976898 344.108765,353.168213 
	C342.027344,352.216858 339.995819,351.121338 337.843018,350.376343 
	C336.801086,350.015778 335.531464,350.312866 334.364929,350.312866 
	C250.374771,350.312805 166.384628,350.312805 82.394470,350.312775 
	C80.253548,350.312775 78.112633,350.312775 75.258995,350.312775 
	C75.258995,347.738373 75.259102,345.625397 75.258987,343.512421 
	C75.253700,250.690247 75.287468,157.868011 75.135345,65.046074 
	C75.127159,60.055252 76.745461,59.048550 81.401329,59.053600 
	C194.054474,59.175816 306.707794,59.149055 419.361084,59.147987 
	C426.715546,59.147919 426.697845,59.143532 426.697693,66.420265 
	C426.695862,154.409821 426.734131,242.399429 426.604034,330.388794 
	C426.597229,334.972900 428.088165,336.762970 432.488586,337.707581 
	C439.615723,339.237518 446.663788,341.278107 453.585724,343.582275 
	C460.637482,345.929626 461.812622,345.341522 461.813263,337.818237 
	C461.822113,237.996841 461.820648,138.175446 461.808746,38.354061 
	C461.807831,30.716335 458.937469,27.900629 451.182373,27.900171 
	C317.531464,27.892290 183.880539,27.892250 50.229614,27.899050 
	C42.632267,27.899437 40.079113,30.446148 40.078522,38.098087 
	C40.066353,196.245682 40.063797,354.393280 40.072594,512.540894 
	C40.073109,521.768311 42.346966,523.959595 51.620300,523.959900 
	C108.446968,523.961914 165.273636,523.967834 222.100296,523.968689 
	C248.930481,523.969055 275.760681,523.979248 302.590820,523.944031 
	C309.246307,523.935242 310.620850,521.483826 307.411377,515.576843 
	C306.060150,513.089905 304.663971,510.627441 303.017822,507.453156 
M163.882477,237.598160 
	C162.495255,235.520370 161.151520,233.411942 159.712982,231.370300 
	C154.667999,224.210327 150.456741,224.199005 145.543442,231.471634 
	C128.292160,257.006927 111.108208,282.587738 93.859467,308.124756 
	C91.790894,311.187317 89.858543,314.727905 92.518997,317.698120 
	C94.435066,319.837280 98.063560,321.561310 100.931946,321.566925 
	C200.756592,321.762268 300.581696,321.727295 400.406708,321.747406 
	C404.040680,321.748138 407.485138,321.499390 409.432526,317.795959 
	C411.408875,314.037537 409.406677,311.115417 407.392548,308.159821 
	C396.887238,292.743805 386.403992,277.312744 375.924438,261.879181 
	C352.531311,227.427353 329.169006,192.954575 305.736145,158.529785 
	C300.868134,151.378265 296.363495,151.397095 291.630463,158.367752 
	C263.747192,199.433289 235.872635,240.504730 207.998276,281.576294 
	C202.838776,289.178589 198.428711,289.113037 193.228027,281.361053 
	C183.576447,266.974792 173.914444,252.595520 163.882477,237.598160 
M475.508698,385.989014 
	C459.097168,370.603271 439.595123,361.867737 417.242310,360.398132 
	C366.770477,357.079803 323.744202,391.265594 316.562988,441.315948 
	C311.310547,477.923798 323.786407,508.677704 353.403992,530.888550 
	C383.008881,553.089905 416.119110,556.595459 449.703491,541.242676 
	C511.525269,512.981445 524.512756,434.441895 475.508698,385.989014 
M123.636475,129.966492 
	C122.516968,130.683655 121.340416,131.326050 120.286964,132.129776 
	C111.601273,138.756546 108.287949,147.637100 110.490234,158.156937 
	C112.623207,168.345612 119.291702,175.103973 129.307938,177.487686 
	C139.470901,179.906326 148.494415,176.964798 155.321228,168.719055 
	C162.487366,160.063477 162.851364,147.027725 156.347168,137.983154 
	C148.977188,127.734657 137.198593,124.654236 123.636475,129.966492 
z"/>
<path fill="#3C4753" opacity="1.000000" stroke="none" 
	d="
M303.153015,507.803497 
	C304.663971,510.627441 306.060150,513.089905 307.411377,515.576843 
	C310.620850,521.483826 309.246307,523.935242 302.590820,523.944031 
	C275.760681,523.979248 248.930481,523.969055 222.100296,523.968689 
	C165.273636,523.967834 108.446968,523.961914 51.620300,523.959900 
	C42.346966,523.959595 40.073109,521.768311 40.072594,512.540894 
	C40.063797,354.393280 40.066353,196.245682 40.078522,38.098087 
	C40.079113,30.446148 42.632267,27.899437 50.229614,27.899050 
	C183.880539,27.892250 317.531464,27.892290 451.182373,27.900171 
	C458.937469,27.900629 461.807831,30.716335 461.808746,38.354061 
	C461.820648,138.175446 461.822113,237.996841 461.813263,337.818237 
	C461.812622,345.341522 460.637482,345.929626 453.585724,343.582275 
	C446.663788,341.278107 439.615723,339.237518 432.488586,337.707581 
	C428.088165,336.762970 426.597229,334.972900 426.604034,330.388794 
	C426.734131,242.399429 426.695862,154.409821 426.697693,66.420265 
	C426.697845,59.143532 426.715546,59.147919 419.361084,59.147987 
	C306.707794,59.149055 194.054474,59.175816 81.401329,59.053600 
	C76.745461,59.048550 75.127159,60.055252 75.135345,65.046074 
	C75.287468,157.868011 75.253700,250.690247 75.258987,343.512421 
	C75.259102,345.625397 75.258995,347.738373 75.258995,350.312775 
	C78.112633,350.312775 80.253548,350.312775 82.394470,350.312775 
	C166.384628,350.312805 250.374771,350.312805 334.364929,350.312866 
	C335.531464,350.312866 336.801086,350.015778 337.843018,350.376343 
	C339.995819,351.121338 342.027344,352.216858 344.108765,353.168213 
	C342.905518,354.976898 342.083160,357.298706 340.441772,358.517120 
	C316.330414,376.415558 300.607330,399.862061 293.918396,429.125916 
	C287.721832,456.235748 291.027802,482.384430 303.153015,507.803497 
z"/>
<path fill="#2D7AC2" opacity="1.000000" stroke="none" 
	d="
M164.069641,237.905746 
	C173.914444,252.595520 183.576447,266.974792 193.228027,281.361053 
	C198.428711,289.113037 202.838776,289.178589 207.998276,281.576294 
	C235.872635,240.504730 263.747192,199.433289 291.630463,158.367752 
	C296.363495,151.397095 300.868134,151.378265 305.736145,158.529785 
	C329.169006,192.954575 352.531311,227.427353 375.924438,261.879181 
	C386.403992,277.312744 396.887238,292.743805 407.392548,308.159821 
	C409.406677,311.115417 411.408875,314.037537 409.432526,317.795959 
	C407.485138,321.499390 404.040680,321.748138 400.406708,321.747406 
	C300.581696,321.727295 200.756592,321.762268 100.931946,321.566925 
	C98.063560,321.561310 94.435066,319.837280 92.518997,317.698120 
	C89.858543,314.727905 91.790894,311.187317 93.859467,308.124756 
	C111.108208,282.587738 128.292160,257.006927 145.543442,231.471634 
	C150.456741,224.199005 154.667999,224.210327 159.712982,231.370300 
	C161.151520,233.411942 162.495255,235.520370 164.069641,237.905746 
z"/>
<path fill="#3E4955" opacity="1.000000" stroke="none" 
	d="
M475.759583,386.237549 
	C524.512756,434.441895 511.525269,512.981445 449.703491,541.242676 
	C416.119110,556.595459 383.008881,553.089905 353.403992,530.888550 
	C323.786407,508.677704 311.310547,477.923798 316.562988,441.315948 
	C323.744202,391.265594 366.770477,357.079803 417.242310,360.398132 
	C439.595123,361.867737 459.097168,370.603271 475.759583,386.237549 
M358.072479,431.380249 
	C357.427826,430.854004 356.790222,430.318878 356.137390,429.802948 
	C350.537567,425.377380 349.824615,425.542664 347.397308,432.342651 
	C343.761749,442.527496 342.556030,452.926239 343.894379,463.758728 
	C349.768677,511.305054 404.690582,537.608093 445.302094,512.207092 
	C451.066711,508.601532 451.115662,507.726501 445.864990,503.419647 
	C416.781830,479.564484 387.702637,455.704468 358.072479,431.380249 
M438.930054,394.461578 
	C417.245758,384.936279 396.188232,386.453156 375.766907,398.160461 
	C370.153900,401.378326 370.119873,402.492554 375.188293,406.675232 
	C404.971924,431.254089 434.768860,455.816772 464.573059,480.370728 
	C469.877991,484.741119 470.743042,484.487213 473.044739,478.124390 
	C484.832947,445.536926 470.977509,411.062286 438.930054,394.461578 
z"/>
<path fill="#2F7BC2" opacity="1.000000" stroke="none" 
	d="
M123.973465,129.785614 
	C137.198593,124.654236 148.977188,127.734657 156.347168,137.983154 
	C162.851364,147.027725 162.487366,160.063477 155.321228,168.719055 
	C148.494415,176.964798 139.470901,179.906326 129.307938,177.487686 
	C119.291702,175.103973 112.623207,168.345612 110.490234,158.156937 
	C108.287949,147.637100 111.601273,138.756546 120.286964,132.129776 
	C121.340416,131.326050 122.516968,130.683655 123.973465,129.785614 
z"/>
<path fill="#FBFBFB" opacity="1.000000" stroke="none" 
	d="
M358.347290,431.613190 
	C387.702637,455.704468 416.781830,479.564484 445.864990,503.419647 
	C451.115662,507.726501 451.066711,508.601532 445.302094,512.207092 
	C404.690582,537.608093 349.768677,511.305054 343.894379,463.758728 
	C342.556030,452.926239 343.761749,442.527496 347.397308,432.342651 
	C349.824615,425.542664 350.537567,425.377380 356.137390,429.802948 
	C356.790222,430.318878 357.427826,430.854004 358.347290,431.613190 
z"/>
<path fill="#FBFBFB" opacity="1.000000" stroke="none" 
	d="
M439.253479,394.656189 
	C470.977509,411.062286 484.832947,445.536926 473.044739,478.124390 
	C470.743042,484.487213 469.877991,484.741119 464.573059,480.370728 
	C434.768860,455.816772 404.971924,431.254089 375.188293,406.675232 
	C370.119873,402.492554 370.153900,401.378326 375.766907,398.160461 
	C396.188232,386.453156 417.245758,384.936279 439.253479,394.656189 
z"/>
</svg>