<svg version="1.1" id="Layer_1" xmlns="http://www.w3.org/2000/svg" xmlns:xlink="http://www.w3.org/1999/xlink" x="0px" y="0px"
	 width="100%" viewBox="0 0 512 512" xml:space="preserve">
<path fill="#ffffff" opacity="1.000000" stroke="none" 
	d="
M70.674934,252.999939 
	C70.674606,207.242020 70.674606,161.984116 70.674606,116.891434 
	C73.384155,116.159027 74.484924,117.694794 75.790413,118.581680 
	C124.301689,151.537430 172.794754,184.519958 221.294647,217.492432 
	C245.131317,233.697708 269.041077,249.796524 292.791107,266.127686 
	C304.959045,274.494659 310.867523,286.546082 312.415192,301.069397 
	C315.128357,326.529236 298.785553,348.806152 274.358398,354.447540 
	C247.299362,360.696686 219.845032,342.948547 214.684402,315.659515 
	C212.132645,302.166046 214.992279,289.946716 221.981308,278.387665 
	C223.842575,275.309326 225.552383,274.643951 228.703812,276.902405 
	C237.205429,282.995087 245.910599,288.803711 254.158524,294.466614 
	C254.651947,296.676849 253.290588,297.438446 252.629181,298.527252 
	C248.526535,305.281067 250.034515,312.932098 256.283447,317.001953 
	C262.056885,320.762207 269.875671,319.149933 273.992676,313.350250 
	C277.936462,307.794586 276.528381,299.553650 270.357300,295.266937 
	C251.200089,281.959534 231.923447,268.823181 212.640625,255.697617 
	C180.961685,234.134216 149.250946,212.617477 117.523163,191.126038 
	C114.562813,189.120789 111.899872,186.498184 108.184349,185.690308 
	C106.569664,187.807709 107.211365,190.050644 107.208443,192.120422 
	C107.167534,221.118454 107.201233,250.116562 107.195984,279.114655 
	C107.194794,285.724884 106.999374,285.922516 100.548485,285.943695 
	C92.215874,285.971069 83.881882,285.853088 75.550880,285.969116 
	C71.970764,286.019012 70.523521,284.738861 70.607376,280.995911 
	C70.812622,271.834656 70.674934,262.665771 70.674934,252.999939 
z"/>
<path fill="#ffffff" opacity="1.000000" stroke="none" 
	d="
M173.401611,150.886993 
	C173.322388,158.642044 173.983185,165.946655 173.031281,173.080566 
	C171.439392,173.720795 170.491089,172.909714 169.550415,172.275116 
	C159.886261,165.755356 150.281082,159.146881 140.557571,152.717209 
	C137.912262,150.968002 136.797440,148.898956 136.807724,145.715973 
	C136.889542,120.396118 136.840195,95.075859 136.855942,69.755737 
	C136.856735,68.480103 136.503403,67.057632 137.808899,66.012871 
	C139.677826,65.471474 140.907669,66.842361 142.216797,67.731735 
	C180.100113,93.468269 217.963501,119.234116 255.826370,145.000732 
	C263.237183,150.043976 263.242462,150.072601 270.551758,145.104782 
	C308.428192,119.361870 346.298553,93.610077 384.165985,67.853935 
	C385.383179,67.026047 386.502991,66.000969 388.070648,66.230392 
	C389.701050,67.873367 389.190460,69.802193 389.192322,71.553268 
	C389.218201,95.873863 389.114349,120.195007 389.263885,144.514648 
	C389.289368,148.662292 387.898956,151.233978 384.427216,153.482025 
	C374.113556,160.160431 364.011383,167.165421 352.836945,174.710953 
	C351.914734,161.204575 353.501190,148.532974 351.825165,135.323792 
	C345.890747,137.411179 341.665405,140.951843 337.224518,143.935394 
	C314.140991,159.443802 291.119598,175.047684 268.257019,190.878967 
	C264.437286,193.523911 261.923401,193.364334 258.180328,190.793961 
	C232.234268,172.977051 206.118942,155.406509 180.032715,137.794250 
	C178.436081,136.716278 177.039185,135.093445 174.594910,135.192307 
	C172.673660,140.153793 173.604767,145.336853 173.401611,150.886993 
z"/>
<path fill="#ffffff" opacity="1.000000" stroke="none" 
	d="
M394.984253,155.948608 
	C414.817505,142.517120 434.349182,129.278992 453.815918,116.084900 
	C456.003693,117.862679 455.307892,119.833649 455.309235,121.524376 
	C455.350494,174.330948 455.287445,227.137680 455.430145,279.943909 
	C455.442566,284.536469 454.039948,286.153595 449.489044,286.018494 
	C441.167145,285.771454 432.828766,285.779999 424.505585,285.998749 
	C420.114990,286.114136 418.746857,284.390137 418.766266,280.107422 
	C418.901428,250.289780 418.845917,220.471283 418.851471,190.653061 
	C418.851776,189.010788 418.851501,187.368500 418.851501,185.091782 
	C413.799316,186.678162 410.370148,189.839050 406.636169,192.377670 
	C373.172791,215.128464 339.750427,237.939651 306.327118,260.749329 
	C304.593353,261.932556 302.926117,262.898132 300.859894,261.494629 
	C291.630676,255.225510 282.388062,248.976120 273.172424,242.687195 
	C272.672180,242.345779 272.372314,241.710663 271.403320,240.482239 
	C312.645020,212.267166 353.663849,184.204575 394.984253,155.948608 
z"/>
<path fill="#ffffff" opacity="1.000000" stroke="none" 
	d="
M136.870056,240.000015 
	C137.066589,231.776489 136.410294,224.013397 137.282104,216.026306 
	C141.867874,216.515015 144.423889,219.417480 147.387863,221.330444 
	C155.082581,226.296616 162.512558,231.671021 170.127014,236.764694 
	C172.429916,238.305206 173.313324,240.169968 173.480377,242.948746 
	C174.722061,263.603851 173.053680,284.253571 173.470673,304.894745 
	C174.086761,335.391449 186.104233,360.347504 210.854080,378.670410 
	C213.824142,380.869232 215.286407,383.147614 215.202209,386.930389 
	C214.983490,396.756134 215.147324,406.590088 215.108398,416.420532 
	C215.102020,418.033051 215.535004,419.768250 214.314697,421.182953 
	C212.867218,421.976501 211.701355,421.107574 210.544479,420.552490 
	C172.438156,402.270325 148.823822,372.466370 139.683746,331.220581 
	C137.369690,320.777954 136.791336,310.161224 136.831970,299.484222 
	C136.906815,279.823029 136.864151,260.161438 136.870056,240.000015 
z"/>
<path fill="#ffffff" opacity="1.000000" stroke="none" 
	d="
M349.499084,397.501923 
	C338.530670,408.187042 326.287628,416.223633 312.602631,421.645172 
	C310.435272,420.169647 310.918365,418.368225 310.913086,416.782166 
	C310.879791,406.789215 311.034332,396.793762 310.851562,386.804199 
	C310.782806,383.046661 312.259277,380.784454 315.226990,378.563446 
	C336.746552,362.458252 349.372070,341.097687 351.748291,314.195862 
	C353.787567,291.109161 352.349762,267.942810 352.383118,244.813629 
	C352.388519,241.064011 353.124878,238.585068 356.314667,236.481415 
	C365.348175,230.523972 374.208618,224.304504 383.158783,218.219925 
	C384.628418,217.220795 386.005371,215.865982 388.131256,216.249756 
	C389.723755,217.901886 389.159760,219.999069 389.162567,221.906326 
	C389.204254,250.220078 389.739227,278.546906 389.061584,306.844421 
	C388.217010,342.113190 375.733215,372.720245 349.499084,397.501923 
z"/>
</svg>